name C:\Users\u0101727\Documents\MyRepositories\upper-imu-dc\Results\main_tracking\Case_56\kinematics.mot
datacolumns 43
datarows 4
range 0.70000000 0.73000000
endheader 
time	clav_prot	clav_elev	scapula_abduction	scapula_elevation	scapula_upward_rot	scapula_winging	plane_elv	shoulder_elv	axial_rot	TrapeziusScapula_M/activation	TrapeziusScapula_S/activation	TrapeziusScapula_I/activation	TrapeziusClavicle_S/activation	SerratusAnterior_I/activation	SerratusAnterior_M/activation	SerratusAnterior_S/activation	Rhomboideus_S/activation	Rhomboideus_I/activation	LevatorScapulae/activation	Coracobrachialis/activation	DeltoideusClavicle_A/activation	DeltoideusScapula_P/activation	DeltoideusScapula_M/activation	LatissimusDorsi_S/activation	LatissimusDorsi_M/activation	LatissimusDorsi_I/activation	PectoralisMajorClavicle_S/activation	PectoralisMajorThorax_I/activation	PectoralisMajorThorax_M/activation	TeresMajor/activation	Infraspinatus_I/activation	Infraspinatus_S/activation	PectoralisMinor/activation	TeresMinor/activation	Subscapularis_S/activation	Subscapularis_M/activation	Subscapularis_I/activation	Supraspinatus_P/activation	Supraspinatus_A/activation	TRIlong/activation	BIC_long/activation	BIC_brevis/activation	
          0.70000000	        -27.07161994	         -4.04220720	        -19.79896501	         -4.33742884	         13.79478730	          4.97702795	        -34.29339711	         17.74718987	         23.93344554	          0.03843390	          0.08637672	          0.07188113	          0.04233197	          0.06241173	          0.18123320	          0.04090844	          0.04937802	          0.09876479	          0.04820195	          0.05082938	          0.06163122	          0.03536451	          0.11725559	          0.08088339	          0.08003710	          0.08678660	          0.06365359	          0.07467871	          0.07838602	          0.01829625	          0.11347903	          0.04434335	          0.04019976	          0.14638902	          0.06953471	          0.07348634	          0.06381608	          0.06913267	          0.10075447	          0.06058314	          0.08578228	          0.04531264	
          0.71000000	        -27.07490215	         -4.05700766	        -19.79131951	         -4.34470617	         13.81308963	          4.97650340	        -34.31612619	         17.76163123	         23.97841151	          0.04203580	          0.07884954	          0.06314037	          0.04011373	          0.06235165	          0.16528385	          0.04395256	          0.05572773	          0.08533696	          0.05305926	          0.04658381	          0.07411926	          0.03850111	          0.10989300	          0.07004674	          0.06886189	          0.07534398	          0.05842237	          0.06724757	          0.06953394	          0.01758024	          0.09952357	          0.07400974	          0.04033033	          0.12630417	          0.08178651	          0.07345530	          0.08084280	          0.06019558	          0.08720389	          0.05239509	          0.08246174	          0.04961880	
          0.72000000	        -27.05330443	         -4.06235110	        -19.74303281	         -4.35190307	         13.83071109	          4.97605429	        -34.33836505	         17.77550677	         24.02300864	          0.05293155	          0.06963634	          0.05462610	          0.04623531	          0.07619461	          0.14259700	          0.03873225	          0.05502448	          0.08461109	          0.05622457	          0.04845311	          0.06451280	          0.03361224	          0.10601690	          0.06071740	          0.05926136	          0.06535771	          0.05907666	          0.06444130	          0.07313072	          0.01627960	          0.08636098	          0.08614458	          0.03812929	          0.10954532	          0.07729358	          0.07352652	          0.07876002	          0.05227232	          0.07546821	          0.04532974	          0.07197206	          0.05053644	
          0.73000000	        -27.03300224	         -4.06769179	        -19.69755162	         -4.35890984	         13.84727302	          4.97572867	        -34.36009918	         17.78818130	         24.06696106	          0.06032791	          0.06079505	          0.04734604	          0.05227354	          0.08490406	          0.12239277	          0.04425810	          0.05614150	          0.08255147	          0.05806939	          0.04943381	          0.05927086	          0.02955675	          0.10306549	          0.05249186	          0.05129180	          0.05633076	          0.05782912	          0.06004534	          0.07218542	          0.02008101	          0.07442894	          0.10159463	          0.03477892	          0.09401680	          0.08029237	          0.07629207	          0.07791541	          0.04550248	          0.06581359	          0.03919454	          0.06626073	          0.05254090	
